# xmcd
#
# Track frame offsets: 
#        150
#        18102
#        32464
#
# Disc length: 606 seconds
#
# Revision: 2
# Processed by: cddbd v1.4PL0 Copyright (c) Steve Scherf et al.
# Submitted via: ExactAudioCopy v0.90b4
#
DISCID=12025c03
DTITLE=Jacque Reese - Demo CD (age 16)
DYEAR=2002
DGENRE=Country
TTITLE0=Forgive
TTITLE1=Let Him Fly
TTITLE2=At Last
EXTD=
EXTT0=
EXTT1=
EXTT2=
PLAYORDER=
